# Blender 3.5.1
# www.blender.org
mtllib lab.mtl
o Windturbine_Support
v 0.670054 -0.400575 12.837840
v 0.670054 -0.323789 12.761054
v -0.514617 -0.323789 12.761054
v -0.514617 -0.400575 12.837840
v 0.670054 0.323789 12.761054
v 0.670054 0.400575 12.837840
v -0.514617 0.400575 12.837840
v -0.514617 0.323789 12.761054
v 0.670054 -0.205725 13.562204
v 0.670054 -0.400575 13.367354
v -0.514617 -0.400575 13.367354
v -0.514617 -0.205725 13.562204
v 0.670054 0.400575 13.367354
v 0.670054 0.205725 13.562204
v -0.514617 0.205725 13.562204
v -0.514617 0.400575 13.367354
v 0.633003 0.459269 12.854402
v 0.592999 0.468955 12.880826
v -0.437561 0.468955 12.880826
v -0.477565 0.459269 12.854402
v -0.477565 -0.459269 12.854402
v -0.437561 -0.468955 12.880826
v 0.592999 -0.468955 12.880826
v 0.633003 -0.459269 12.854402
v -0.477565 -0.459269 13.350795
v -0.437561 -0.468955 13.324369
v 0.592999 -0.468955 13.324369
v 0.633003 -0.459269 13.350795
v 0.592999 0.468955 13.324369
v 0.633003 0.459269 13.350795
v -0.477565 0.459269 13.350795
v -0.437561 0.468955 13.324369
v -0.417749 -0.000000 0.000000
v -0.385950 0.159866 0.000000
v -0.295393 0.295393 0.000000
v -0.159866 0.385950 0.000000
v 0.000000 0.417749 0.000000
v 0.159866 0.385950 0.000000
v 0.295394 0.295393 0.000000
v 0.385950 0.159866 0.000000
v 0.417749 -0.000000 0.000000
v 0.385950 -0.159866 0.000000
v 0.295394 -0.295393 0.000000
v 0.159866 -0.385950 0.000000
v 0.000000 -0.417749 0.000000
v -0.159866 -0.385950 0.000000
v -0.295393 -0.295393 0.000000
v -0.385950 -0.159866 0.000000
v -0.281783 -0.116718 12.761054
v -0.242729 -0.175167 12.761054
v 0.281783 0.116718 12.761054
v -0.304999 -0.000000 12.761054
v -0.216159 0.214932 12.761054
v -0.215667 0.215667 12.761054
v 0.000000 0.305000 12.761054
v 0.116718 0.281783 12.761054
v 0.215667 0.215667 12.761054
v -0.116718 0.281783 12.761054
v -0.281783 0.116718 12.761054
v 0.000000 -0.305000 12.761054
v -0.116718 -0.281783 12.761054
v 0.116718 -0.281783 12.761054
v 0.305000 -0.000000 12.761054
v 0.281783 -0.116718 12.761054
v 0.215667 -0.215667 12.761054
v -0.215667 -0.215667 12.761054
vn -0.9788 0.2050 -0.0000
vn -0.8456 0.5338 -0.0000
vn -0.0000 -0.5453 -0.8382
vn -0.0000 -0.2716 -0.9624
vn 0.0848 -0.9867 0.1387
vn -0.0848 -0.9867 -0.1387
vn 0.0848 -0.9867 -0.1387
vn -0.9788 -0.2050 -0.0000
vn -1.0000 -0.0000 -0.0000
vn 1.0000 -0.0000 -0.0000
vn 0.9788 0.2050 -0.0000
vn -0.0000 -0.7071 -0.7071
vn -0.0000 0.7071 -0.7071
vn -0.0000 0.5453 -0.8382
vn -0.0000 -0.0000 -1.0000
vn -0.0000 -0.7071 0.7071
vn -0.0000 -0.5453 0.8382
vn -0.0000 0.7071 0.7071
vn -0.0000 0.5453 0.8382
vn -0.0000 -0.0000 1.0000
vn -0.0000 0.2716 -0.9624
vn 0.8456 0.5338 -0.0000
vn -0.8456 -0.5338 -0.0000
vn -0.0000 -0.2715 0.9624
vn 0.9788 -0.2050 -0.0000
vn 0.8456 -0.5338 -0.0000
vn -0.0000 0.2715 0.9624
vn -0.0848 0.9867 -0.1387
vn -0.1372 0.9789 0.1511
vn -0.0848 0.9867 0.1387
vn 0.0848 0.9867 0.1387
vn 0.1372 0.9789 -0.1511
vn 0.0848 0.9867 -0.1387
vn -0.1372 -0.9789 0.1511
vn -0.0848 -0.9867 0.1387
vn -0.1372 -0.9789 -0.1511
vn 0.1372 -0.9789 0.1511
vn 0.1372 0.9789 0.1511
vn -0.1372 0.9790 -0.1511
vn 0.1372 -0.9789 -0.1511
vn -1.0000 -0.0000 0.0088
vn -0.9224 0.3862 0.0088
vn -0.9223 0.3864 0.0088
vn -0.8314 0.5556 0.0087
vn -0.7028 0.7113 0.0088
vn -0.7026 0.7115 0.0088
vn -0.3783 0.9257 0.0088
vn -0.3781 0.9257 0.0088
vn -0.0000 1.0000 0.0088
vn 0.3781 0.9257 0.0088
vn 0.3783 0.9257 0.0088
vn 0.7026 0.7115 0.0088
vn 0.7028 0.7113 0.0088
vn 0.9223 0.3864 0.0088
vn 0.9224 0.3862 0.0088
vn 1.0000 -0.0000 0.0088
vn 0.9224 -0.3862 0.0088
vn 0.7028 -0.7113 0.0088
vn 0.9223 -0.3864 0.0088
vn 0.3783 -0.9257 0.0088
vn 0.7026 -0.7115 0.0088
vn 0.3781 -0.9257 0.0088
vn -0.0000 -1.0000 0.0088
vn -0.3781 -0.9257 0.0088
vn -0.3783 -0.9257 0.0088
vn -0.7026 -0.7115 0.0088
vn -0.7028 -0.7113 0.0088
vn -0.9223 -0.3864 0.0088
vn -0.8314 -0.5555 0.0087
vn -0.9224 -0.3862 0.0088
vn -0.0000 -0.2716 0.9624
vn -0.0000 0.2716 0.9624
vt 0.977336 0.183335
vt 0.915912 0.345440
vt 0.971481 0.189304
vt 0.921881 0.345440
vt 0.922154 0.259405
vt 0.921881 0.267217
vt 0.915912 0.267217
vt 0.916312 0.253435
vt 0.922157 0.189304
vt 0.972227 0.345440
vt 0.978197 0.345440
vt 0.916314 0.183335
vt 0.977333 0.253436
vt 0.978197 0.267217
vt 0.971479 0.259405
vt 0.972227 0.267217
vt 0.928535 0.542409
vt 0.962548 0.127020
vt 0.945326 0.793771
vt 0.769075 0.071847
vt 0.913335 0.543644
vt 0.977375 0.142168
vt 0.913335 0.621604
vt 0.916351 0.212269
vt 0.769075 0.150070
vt 0.931207 0.197121
vt 0.928535 0.620369
vt 0.945326 0.715548
vt 0.913335 0.707407
vt 0.916353 0.142168
vt 0.913329 0.455287
vt 0.931209 0.127020
vt 0.928535 0.706173
vt 0.913338 0.793771
vt 0.928535 0.628212
vt 0.913338 0.715548
vt 0.962546 0.197121
vt 0.913329 0.533509
vt 0.977373 0.212269
vt 0.913335 0.629447
vt 0.982760 0.342993
vt 0.911354 0.182035
vt 0.923265 0.958559
vt 0.925835 0.960611
vt 0.993654 0.960611
vt 0.981315 0.252136
vt 0.982760 0.269664
vt 0.996349 0.958559
vt 0.911348 0.269664
vt 0.911352 0.252136
vt 0.911345 0.119194
vt 0.913396 0.116624
vt 0.913396 0.048805
vt 0.911348 0.342993
vt 0.981317 0.182035
vt 0.911345 0.046110
vt 0.911389 0.213545
vt 0.764512 0.147623
vt 0.949936 0.119205
vt 0.947879 0.116633
vt 0.947879 0.048815
vt 0.764512 0.074293
vt 0.981354 0.143444
vt 0.949936 0.046121
vt 0.925826 0.995094
vt 0.911391 0.143444
vt 0.917892 0.457733
vt 0.923254 0.997151
vt 0.981352 0.213545
vt 0.917892 0.531063
vt 0.996338 0.997151
vt 0.993645 0.995094
vt 0.741782 0.997149
vt 0.913333 0.838207
vt 0.753537 0.997130
vt 0.913333 0.825602
vt 0.762662 0.997092
vt 0.835961 0.997134
vt 0.917474 0.814217
vt 0.845455 0.997149
vt 0.925124 0.805784
vt 0.856178 0.997149
vt 0.935121 0.801588
vt 0.866496 0.997134
vt 0.772478 0.997092
vt 0.945941 0.802267
vt 0.781169 0.997130
vt 0.955938 0.807719
vt 0.792690 0.997149
vt 0.963588 0.817112
vt 0.805287 0.997149
vt 0.967729 0.829017
vt 0.817043 0.997130
vt 0.967729 0.841622
vt 0.826167 0.997092
vt 0.875644 0.997134
vt 0.963588 0.853007
vt 0.885139 0.997150
vt 0.955938 0.861440
vt 0.895862 0.997150
vt 0.945941 0.865636
vt 0.906180 0.997134
vt 0.708972 0.997092
vt 0.935121 0.864957
vt 0.717663 0.997130
vt 0.925124 0.859505
vt 0.729184 0.997149
vt 0.917474 0.850112
vt 0.937980 0.282591
vt 0.731252 0.005019
vt 0.933436 0.285170
vt 0.726283 0.005012
vt 0.956128 0.319803
vt 0.794757 0.005019
vt 0.947054 0.281058
vt 0.740449 0.005019
vt 0.963764 0.286924
vt 0.755644 0.004980
vt 0.963821 0.286957
vt 0.755694 0.004980
vt 0.840203 0.005008
vt 0.970766 0.301197
vt 0.854964 0.005019
vt 0.862497 0.005008
vt 0.968961 0.308904
vt 0.780000 0.004980
vt 0.963821 0.315437
vt 0.786345 0.005006
vt 0.968961 0.293490
vt 0.847135 0.005019
vt 0.956128 0.282591
vt 0.749032 0.005006
vt 0.923342 0.301197
vt 0.894650 0.005021
vt 0.902183 0.005010
vt 0.925147 0.293490
vt 0.716495 0.004980
vt 0.925147 0.308904
vt 0.886821 0.005021
vt 0.803954 0.005019
vt 0.947054 0.321336
vt 0.937980 0.319803
vt 0.812537 0.005006
vt 0.879889 0.005009
vt 0.930287 0.315437
vt 0.819199 0.004980
vt 0.930287 0.286957
vt 0.722840 0.005006
s 1
usemtl Windmill
f 16/39/1 20/46/2 7/13/1
f 1/2/3 21/49/4 4/7/3
f 27/61/5 22/52/6 23/53/7
f 4/8/8 12/26/9 16/39/1
f 5/9/10 13/30/11 9/18/10
f 2/4/12 4/7/3 3/6/12
f 8/16/13 6/11/14 5/10/13
f 3/6/15 8/16/15 49/109/15
f 5/10/15 64/142/15 63/141/15
f 12/27/16 10/21/17 9/17/16
f 14/33/18 16/40/19 15/35/18
f 12/28/20 14/34/20 15/36/20
f 7/14/14 17/41/21 6/11/14
f 13/30/11 17/42/22 30/66/22
f 11/24/8 21/50/23 25/57/23
f 11/25/17 28/62/24 10/20/17
f 10/22/25 24/55/26 1/1/25
f 13/31/19 31/70/27 16/38/19
f 19/45/28 31/71/29 32/72/30
f 29/65/31 17/43/32 18/44/33
f 27/61/5 25/59/34 26/60/35
f 21/51/36 26/60/35 25/59/34
f 23/53/7 28/64/37 27/61/5
f 29/65/31 31/71/29 30/68/38
f 18/44/33 20/48/39 19/45/28
f 22/52/6 24/56/40 23/53/7
f 32/72/30 18/44/33 19/45/28
f 33/73/41 59/132/42 34/75/43
f 34/75/43 53/118/44 54/120/45
f 35/78/46 58/130/47 36/80/48
f 36/80/48 55/123/49 37/82/49
f 38/84/50 55/123/49 56/124/51
f 39/87/52 56/126/51 57/128/53
f 40/89/54 57/128/53 51/114/55
f 41/91/56 51/114/55 63/140/56
f 64/143/57 41/91/56 63/140/56
f 65/146/58 42/93/59 64/143/57
f 62/139/60 43/96/61 65/144/58
f 44/98/62 60/134/63 45/100/63
f 46/102/64 60/134/63 61/135/65
f 47/105/66 61/137/65 66/148/67
f 48/107/68 66/148/67 50/112/69
f 33/73/41 49/110/70 52/116/41
f 39/88/15 43/97/15 47/106/15
f 16/39/1 31/69/2 20/46/2
f 1/2/3 24/54/4 21/49/4
f 27/61/5 26/60/35 22/52/6
f 16/39/1 7/13/1 8/15/9
f 8/15/9 3/5/9 4/8/8
f 4/8/8 11/24/8 12/26/9
f 12/26/9 15/37/9 16/39/1
f 16/39/1 8/15/9 4/8/8
f 9/18/10 10/22/25 1/1/25
f 1/1/25 2/3/10 5/9/10
f 5/9/10 6/12/11 13/30/11
f 13/30/11 14/32/10 9/18/10
f 9/18/10 1/1/25 5/9/10
f 2/4/12 1/2/3 4/7/3
f 8/16/13 7/14/14 6/11/14
f 8/16/15 53/117/15 59/131/15
f 8/16/15 59/131/15 52/115/15
f 49/109/15 50/111/15 3/6/15
f 8/16/15 52/115/15 49/109/15
f 54/119/15 53/117/15 8/16/15
f 3/6/15 50/111/15 66/147/15
f 3/6/15 66/147/15 61/136/15
f 58/129/15 54/119/15 8/16/15
f 55/122/15 58/129/15 8/16/15
f 3/6/15 61/136/15 60/133/15
f 2/4/15 3/6/15 60/133/15
f 55/122/15 8/16/15 5/10/15
f 56/125/15 55/122/15 5/10/15
f 2/4/15 60/133/15 62/138/15
f 2/4/15 62/138/15 65/145/15
f 57/127/15 56/125/15 5/10/15
f 51/113/15 57/127/15 5/10/15
f 5/10/15 2/4/15 65/145/15
f 5/10/15 65/145/15 64/142/15
f 63/141/15 51/113/15 5/10/15
f 12/27/16 11/23/17 10/21/17
f 14/33/18 13/29/19 16/40/19
f 12/28/20 9/19/20 14/34/20
f 7/14/14 20/47/21 17/41/21
f 13/30/11 6/12/11 17/42/22
f 11/24/8 4/8/8 21/50/23
f 11/25/17 25/58/71 28/62/24
f 10/22/25 28/63/26 24/55/26
f 13/31/19 30/67/72 31/70/27
f 19/45/28 20/48/39 31/71/29
f 29/65/31 30/68/38 17/43/32
f 27/61/5 28/64/37 25/59/34
f 21/51/36 22/52/6 26/60/35
f 23/53/7 24/56/40 28/64/37
f 29/65/31 32/72/30 31/71/29
f 18/44/33 17/43/32 20/48/39
f 22/52/6 21/51/36 24/56/40
f 32/72/30 29/65/31 18/44/33
f 33/73/41 52/116/41 59/132/42
f 54/120/45 35/77/46 34/75/43
f 34/75/43 59/132/42 53/118/44
f 35/78/46 54/121/45 58/130/47
f 36/80/48 58/130/47 55/123/49
f 38/84/50 37/82/49 55/123/49
f 39/87/52 38/85/50 56/126/51
f 40/89/54 39/87/52 57/128/53
f 41/91/56 40/89/54 51/114/55
f 64/143/57 42/93/59 41/91/56
f 65/146/58 43/95/61 42/93/59
f 62/139/60 44/98/62 43/96/61
f 44/98/62 62/139/60 60/134/63
f 46/102/64 45/100/63 60/134/63
f 47/105/66 46/103/64 61/137/65
f 50/112/69 49/110/70 48/107/68
f 48/107/68 47/105/66 66/148/67
f 33/73/41 48/107/68 49/110/70
f 47/106/15 48/108/15 33/74/15
f 33/74/15 34/76/15 35/79/15
f 35/79/15 36/81/15 37/83/15
f 37/83/15 38/86/15 39/88/15
f 39/88/15 40/90/15 41/92/15
f 41/92/15 42/94/15 43/97/15
f 43/97/15 44/99/15 45/101/15
f 45/101/15 46/104/15 47/106/15
f 47/106/15 33/74/15 35/79/15
f 35/79/15 37/83/15 39/88/15
f 39/88/15 41/92/15 43/97/15
f 43/97/15 45/101/15 47/106/15
f 47/106/15 35/79/15 39/88/15
