# Blender 3.5.1
# www.blender.org
mtllib lampa.mtl
o lamppost3_L0
v 0.161853 -1.048315 -3.434445
v 0.071143 -1.205425 -3.434445
v 0.252553 -1.205425 -3.434445
v 0.161853 -1.092175 2.431400
v 0.109123 -1.183495 2.448550
v 0.214573 -1.183495 2.448550
v 0.161853 -0.432805 3.318970
v 0.112373 -0.494835 3.395840
v 0.211323 -0.494835 3.395840
v 0.161853 0.400205 3.685550
v 0.115693 0.393365 3.765420
v 0.208013 0.393365 3.765420
v 0.161853 1.470665 3.817710
v 0.129113 1.469975 3.874420
v 0.194593 1.469975 3.874420
v 0.156243 -0.981295 -3.435785
v 0.305513 -1.239855 -3.435785
v 0.006963 -1.239855 -3.435785
v 0.156243 -0.958895 -3.874420
v 0.324923 -1.251075 -3.874420
v -0.012447 -1.251075 -3.874420
v 0.101903 0.878415 3.634330
v 0.227783 0.878415 3.634330
v 0.101903 1.633565 3.721930
v 0.227783 1.633565 3.721930
v 0.109453 0.923735 3.752340
v 0.220233 0.923735 3.752340
v 0.109453 1.588255 3.839940
v 0.220233 1.588255 3.839940
v 0.220233 1.588255 3.839940
v 0.220233 1.588255 3.839940
v 0.109453 1.588255 3.839940
v 0.109453 1.588255 3.839940
v 0.109453 0.923735 3.752340
v 0.109453 0.923735 3.752340
v 0.220233 0.923735 3.752340
v 0.220233 0.923735 3.752340
v 0.101903 1.633565 3.721930
v 0.101903 1.633565 3.721930
v 0.101903 0.878415 3.634330
v 0.101903 0.878415 3.634330
v 0.112373 -0.494835 3.395840
v 0.115693 0.393365 3.765420
v 0.211323 -0.494835 3.395840
v 0.208013 0.393365 3.765420
v 0.161853 -0.432805 3.318970
v 0.161853 -1.092175 2.431400
v 0.109123 -1.183495 2.448550
v 0.006963 -1.239855 -3.435785
v 0.006963 -1.239855 -3.435785
v 0.156243 -0.981295 -3.435785
v 0.156243 -0.981295 -3.435785
v 0.071143 -1.205425 -3.434445
v 0.071143 -1.205425 -3.434445
v 0.324923 -1.251075 -3.874420
v 0.324923 -1.251075 -3.874420
v -0.012447 -1.251075 -3.874420
v -0.012447 -1.251075 -3.874420
v 0.156243 -0.958895 -3.874420
v 0.156243 -0.958895 -3.874420
v 0.214573 -1.183495 2.448550
v 0.252553 -1.205425 -3.434445
v 0.227783 1.633565 3.721930
v 0.227783 1.633565 3.721930
v 0.194593 1.469975 3.874420
v 0.194593 1.469975 3.874420
v 0.161853 1.470665 3.817710
v 0.161853 1.470665 3.817710
v 0.129113 1.469975 3.874420
v 0.129113 1.469975 3.874420
v 0.227783 0.878415 3.634330
v 0.227783 0.878415 3.634330
v 0.161853 0.400205 3.685550
v 0.161853 -1.048315 -3.434445
v 0.305513 -1.239855 -3.435785
v 0.305513 -1.239855 -3.435785
vn -0.0000 0.9336 0.3584
vn -0.0000 0.9999 0.0122
vn -0.9978 -0.0078 0.0663
vn -0.9981 -0.0080 0.0608
vn -0.9981 -0.0080 0.0615
vn -0.0000 0.1152 -0.9933
vn -0.0000 -0.1307 0.9914
vn 0.9978 -0.0086 0.0663
vn 0.9981 -0.0071 0.0611
vn 0.9981 -0.0072 0.0616
vn -0.9977 -0.0078 0.0668
vn 0.9977 -0.0089 0.0672
vn -0.8622 0.1425 -0.4862
vn -0.8648 0.0615 -0.4983
vn -0.8647 0.0615 -0.4985
vn 0.8636 0.1251 -0.4885
vn 0.8648 0.0612 -0.4983
vn 0.8647 0.0612 -0.4985
vn -0.0000 -0.2458 0.9693
vn -0.0000 -0.1007 0.9949
vn -0.0000 -0.9335 0.3585
vn 0.8637 0.1378 -0.4848
vn -0.8646 0.1274 -0.4860
vn -0.8933 0.2771 -0.3539
vn 0.8931 0.2834 -0.3493
vn -0.0000 -0.6201 0.7846
vn 0.8932 0.2831 -0.3493
vn -0.8929 0.2795 -0.3529
vn -0.0000 -0.6200 0.7846
vn -0.8683 0.4682 -0.1640
vn 0.8698 0.4721 -0.1433
vn -0.0000 -0.9507 0.3100
vn 0.8670 0.4687 -0.1693
vn -0.8686 0.4750 -0.1414
vn -0.8657 0.4998 0.0255
vn 0.8658 0.4998 0.0255
vn -0.8660 0.5000 0.0037
vn 0.7209 0.4162 -0.5541
vn -0.0000 -0.0000 -1.0000
vn -0.0000 -0.0000 1.0000
vn -0.0000 -1.0000 0.0037
vn -0.0000 -0.9997 0.0256
vt 0.940850 0.500028
vt 0.999501 0.000499
vt 0.999501 0.999501
vt 0.957223 0.500028
vt 0.991314 0.209650
vt 0.991314 0.790350
vt 0.711077 0.500029
vt 0.734233 0.227549
vt 0.734233 0.772453
vt 0.400109 0.500030
vt 0.402662 0.245833
vt 0.402662 0.754227
vt 0.000500 0.500031
vt 0.000757 0.319736
vt 0.000757 0.680326
vt 0.077088 0.500015
vt 0.942025 0.999500
vt 0.057975 0.999500
vt 0.000500 0.000499
vt 0.999501 0.000499
vt 0.000499 0.000499
vt 0.000000 0.000000
vt 0.020000 0.000000
vt 0.000000 0.000000
vt 0.020000 0.000000
vt 0.000000 0.001000
vt 0.020000 0.001000
vt 0.000000 0.001000
vt 0.020000 0.001000
vt 0.020000 0.001000
vt 0.000000 0.001000
vt 0.020000 0.001000
vt 0.000000 0.001000
vt 0.000000 0.000000
vt 0.020000 0.001000
vt 0.020000 0.000000
vt 0.000000 0.001000
vt 0.020000 0.000000
vt 0.020000 0.000000
vt 0.000000 0.000000
vt 0.020000 0.000000
vt 0.734233 0.227549
vt 0.402662 0.245833
vt 0.734233 0.772453
vt 0.402662 0.754227
vt 0.711077 0.500029
vt 0.957223 0.500028
vt 0.991314 0.209650
vt 0.961138 0.999500
vt 0.961138 0.057975
vt 0.077088 0.999500
vt 0.922912 0.999500
vt 0.999501 0.000499
vt 0.999501 0.999501
vt 0.000500 0.000499
vt 0.000500 0.000499
vt 0.999500 0.000499
vt 0.999500 0.000499
vt 0.000500 0.000499
vt 0.999501 0.000499
vt 0.991314 0.790350
vt 0.999501 0.999501
vt 0.000000 0.000000
vt 0.020000 0.001000
vt 0.000757 0.680326
vt 0.000757 0.680326
vt 0.000500 0.500031
vt 0.000500 0.500031
vt 0.000757 0.319736
vt 0.000757 0.319736
vt 0.000000 0.000000
vt 0.000000 0.001000
vt 0.400109 0.500030
vt 0.940850 0.500028
vt 0.961138 0.942025
vt 0.038862 0.999500
s 1
usemtl lamppost3_L0.0
f 63/63/1 39/39/1 32/32/1
f 32/32/1 31/31/1 63/63/1
f 67/67/2 69/69/2 65/65/2
f 35/35/3 33/33/4 24/24/5
f 40/40/6 38/38/6 64/64/6
f 30/30/7 28/28/7 34/34/7
f 71/71/8 25/25/9 29/29/10
f 34/34/7 36/36/7 30/30/7
f 24/24/5 41/41/11 35/35/3
f 29/29/10 37/37/12 71/71/8
f 64/64/6 72/72/6 40/40/6
f 73/73/13 70/70/14 68/68/15
f 45/45/16 13/13/17 66/66/18
f 11/11/19 15/15/20 14/14/20
f 27/27/21 26/26/21 22/22/21
f 22/22/21 23/23/21 27/27/21
f 45/45/16 10/10/22 13/13/17
f 73/73/13 43/43/23 70/70/14
f 11/11/19 12/12/19 15/15/20
f 46/46/24 43/43/23 73/73/13
f 44/44/25 10/10/22 45/45/16
f 8/8/26 12/12/19 11/11/19
f 44/44/25 7/7/27 10/10/22
f 46/46/24 42/42/28 43/43/23
f 8/8/26 9/9/29 12/12/19
f 47/47/30 42/42/28 46/46/24
f 61/61/31 7/7/27 44/44/25
f 5/5/32 9/9/29 8/8/26
f 61/61/31 4/4/33 7/7/27
f 47/47/30 48/48/34 42/42/28
f 5/5/32 6/6/32 9/9/29
f 49/49/35 51/51/35 59/59/35
f 52/52/36 56/56/36 60/60/36
f 1/1/37 48/48/34 47/47/30
f 62/62/38 74/74/38 4/4/33
f 1/1/37 53/53/37 48/48/34
f 49/49/35 59/59/35 58/58/35
f 74/74/38 62/62/38 54/54/39
f 16/16/40 50/50/40 75/75/40
f 57/57/39 19/19/39 55/55/39
f 52/52/36 76/76/36 56/56/36
f 62/62/38 4/4/33 61/61/31
f 2/2/41 6/6/32 5/5/32
f 2/2/41 3/3/41 6/6/32
f 17/17/42 18/18/42 21/21/42
f 17/17/42 21/21/42 20/20/42
